<?xml version="1.0" encoding="utf-8"?>
<svg viewBox="186.27 179.309 115.418 95.1175" xmlns="http://www.w3.org/2000/svg">
  <path d="M 254.168 179.418 C 253.968 179.478 252.918 179.828 251.808 180.188 C 245.868 182.128 241.658 184.378 240.618 186.168 C 240.218 186.848 240.148 187.408 240.378 187.958 C 240.638 188.578 241.118 189.058 242.438 189.988 C 243.058 190.428 244.108 191.328 244.798 192.008 C 248.068 195.268 249.648 199.268 249.468 203.788 C 249.268 208.878 246.878 213.968 242.318 219.048 C 240.728 220.828 239.088 222.308 235.958 224.818 C 233.348 226.908 231.928 228.268 230.958 229.578 C 227.988 233.618 228.788 237.218 233.308 240.228 C 237.298 242.888 244.328 245.098 252.628 246.298 C 255.408 246.698 258.548 246.958 259.308 246.848 L 259.838 246.768 L 260.668 245.268 C 264.878 237.698 266.998 230.548 267.258 223.158 C 267.368 219.858 266.958 215.958 266.248 213.678 C 266.118 213.268 266.028 212.918 266.038 212.908 C 266.048 212.898 267.228 212.538 268.648 212.118 C 276.138 209.888 283.388 208.128 289.378 207.088 C 290.548 206.888 291.538 206.678 291.588 206.628 C 291.908 206.318 290.978 204.858 289.458 203.298 C 283.858 197.518 273.958 193.118 262.338 191.238 C 260.098 190.878 259.828 190.748 258.998 189.648 C 257.678 187.898 256.438 184.918 254.748 179.448 C 254.698 179.268 254.648 179.268 254.168 179.418 Z M 254.938 181.478 C 255.588 183.258 255.988 184.648 255.988 185.138 L 255.988 185.528 L 255.438 185.468 C 252.448 185.118 247.668 184.378 246.648 184.108 C 246.388 184.038 246.238 183.938 246.288 183.858 C 246.368 183.738 247.378 183.248 250.398 181.878 C 253.208 180.598 254.278 180.128 254.368 180.118 C 254.408 180.108 254.658 180.728 254.938 181.478 Z M 248.608 185.228 C 252.258 185.998 254.928 186.478 255.508 186.478 C 256.078 186.478 256.018 186.528 253.328 188.168 C 251.258 189.428 251.018 189.548 250.498 189.548 L 249.928 189.548 L 248.388 187.998 C 246.528 186.118 245.268 184.738 245.268 184.578 C 245.268 184.518 245.308 184.498 245.358 184.528 C 245.408 184.538 246.878 184.858 248.608 185.228 Z M 245.908 186.958 C 246.808 188.008 247.498 188.888 247.458 188.918 C 247.378 188.988 244.818 188.358 243.258 187.878 C 241.888 187.458 241.728 187.318 242.088 186.848 C 242.328 186.538 244.088 185.068 244.218 185.058 C 244.258 185.058 245.008 185.908 245.908 186.958 Z M 257.568 189.118 C 257.928 189.968 258.198 190.658 258.188 190.668 C 258.168 190.678 253.368 189.938 252.948 189.858 C 252.858 189.838 253.668 189.288 254.768 188.618 C 255.868 187.948 256.788 187.448 256.838 187.498 C 256.888 187.548 257.208 188.268 257.568 189.118 Z M 247.098 190.738 C 247.188 190.828 248.338 194.518 248.288 194.568 C 248.268 194.588 247.728 193.958 247.078 193.158 C 246.428 192.358 245.448 191.228 244.878 190.648 L 243.858 189.578 L 245.438 190.128 C 246.318 190.418 247.058 190.698 247.098 190.738 Z M 251.688 191.228 C 253.678 191.508 255.328 191.768 255.358 191.798 C 255.388 191.828 254.178 192.768 252.688 193.878 C 251.188 194.988 249.958 195.888 249.938 195.868 C 249.918 195.848 249.768 195.388 249.598 194.828 C 249.428 194.278 249.008 193.128 248.658 192.268 C 248.308 191.408 248.028 190.708 248.048 190.708 C 248.058 190.708 249.698 190.948 251.688 191.228 Z M 256.688 192.818 C 257.128 193.848 257.298 194.828 257.368 196.798 C 257.408 197.858 257.408 198.718 257.378 198.718 C 257.338 198.718 256.708 198.498 255.978 198.238 C 254.518 197.708 251.658 196.768 251.318 196.698 C 251.168 196.668 251.858 196.008 253.678 194.448 C 255.088 193.228 256.288 192.238 256.348 192.238 C 256.398 192.238 256.548 192.498 256.688 192.818 Z M 261.818 193.068 C 264.018 193.518 265.948 193.918 266.098 193.958 C 266.318 194.008 265.788 194.338 263.458 195.618 C 261.858 196.498 260.038 197.498 259.418 197.848 C 258.798 198.198 258.278 198.468 258.268 198.458 C 258.258 198.448 258.318 198.118 258.408 197.728 C 258.738 196.298 258.528 194.518 257.868 193.098 C 257.678 192.688 257.518 192.318 257.518 192.298 C 257.528 192.188 257.928 192.268 261.818 193.068 Z M 267.828 195.758 C 267.718 196.258 267.468 197.108 267.278 197.658 C 266.858 198.868 265.318 202.018 265.108 202.098 C 265.028 202.128 264.298 201.798 263.508 201.358 C 262.718 200.918 261.568 200.338 260.968 200.068 L 259.868 199.578 L 263.898 196.988 C 267.238 194.848 267.938 194.438 267.978 194.628 C 268.008 194.758 267.938 195.258 267.828 195.758 Z M 270.778 194.838 C 274.958 196.038 279.378 197.658 279.118 197.898 C 279.068 197.948 278.518 198.128 277.908 198.298 C 274.748 199.188 270.358 200.708 268.308 201.618 C 267.668 201.898 267.118 202.108 267.088 202.068 C 267.058 202.038 267.308 201.118 267.648 200.018 C 268.308 197.858 269.078 194.948 269.078 194.578 C 269.078 194.418 269.138 194.358 269.288 194.398 C 269.388 194.438 270.058 194.638 270.778 194.838 Z M 252.788 199.178 C 253.738 199.488 254.858 199.918 255.268 200.128 C 256.008 200.498 256.018 200.508 255.808 200.738 C 255.428 201.158 251.278 205.028 251.158 205.068 C 251.098 205.088 251.048 204.508 251.048 203.658 C 251.048 202.188 250.878 199.528 250.748 198.938 C 250.648 198.488 250.728 198.498 252.788 199.178 Z M 279.348 199.948 C 278.438 201.458 276.928 203.608 275.848 204.968 C 274.738 206.358 272.388 208.968 272.248 208.968 C 272.198 208.968 271.858 208.548 271.488 208.028 C 270.148 206.118 268.598 204.468 267.238 203.508 C 267.108 203.418 267.028 203.318 267.058 203.288 C 267.088 203.258 269.318 202.438 272.008 201.458 C 277.448 199.488 279.848 198.688 279.998 198.788 C 280.018 198.798 279.728 199.318 279.348 199.948 Z M 282.748 199.688 C 286.508 202.308 289.058 204.428 289.978 205.698 C 290.208 206.018 290.378 206.288 290.358 206.308 C 290.338 206.328 289.128 206.458 287.668 206.608 C 281.838 207.178 277.688 207.768 275.488 208.328 C 274.898 208.478 274.408 208.588 274.398 208.578 C 274.388 208.568 274.778 208.088 275.268 207.498 C 277.808 204.448 280.108 201.278 280.958 199.628 C 281.188 199.188 281.408 198.838 281.448 198.838 C 281.498 198.838 282.078 199.218 282.748 199.688 Z M 261.708 202.938 C 262.428 203.328 262.978 203.678 262.948 203.738 C 262.888 203.848 256.558 207.318 256.498 207.268 C 256.488 207.258 256.808 206.218 257.228 204.948 C 257.648 203.678 258.048 202.298 258.128 201.878 L 258.268 201.108 L 259.338 201.678 C 259.928 201.988 260.988 202.548 261.708 202.938 Z M 256.398 203.138 C 255.788 205.258 254.548 207.998 253.978 208.468 C 253.848 208.578 253.588 208.428 252.758 207.748 C 252.168 207.278 251.568 206.808 251.408 206.698 C 251.258 206.588 251.138 206.478 251.168 206.448 C 251.608 206.018 256.648 201.948 256.678 202.008 C 256.688 202.048 256.568 202.558 256.398 203.138 Z M 267.878 206.828 C 268.828 207.468 270.948 209.358 270.838 209.478 C 270.808 209.508 268.658 210.208 266.068 211.028 C 263.478 211.848 260.588 212.778 259.648 213.088 C 258.708 213.408 257.928 213.648 257.918 213.638 C 257.908 213.628 258.568 212.878 259.378 211.968 C 261.498 209.598 263.678 207.068 264.458 206.068 L 265.128 205.208 L 265.998 205.678 C 266.468 205.938 267.318 206.458 267.878 206.828 Z M 262.968 205.468 C 262.908 205.548 262.338 206.268 261.698 207.078 C 261.058 207.888 259.518 209.858 258.278 211.458 L 256.018 214.368 L 255.948 213.878 C 255.808 212.928 255.298 211.058 255.008 210.428 L 254.718 209.788 L 256.158 209.068 C 257.638 208.328 260.738 206.648 262.188 205.798 C 263.078 205.278 263.138 205.248 262.968 205.468 Z M 250.968 208.988 C 251.558 209.288 252.108 209.688 252.108 209.808 C 252.108 209.998 248.278 212.958 248.168 212.848 C 248.148 212.818 248.488 212.138 248.938 211.328 C 249.388 210.518 249.838 209.608 249.948 209.298 C 250.058 208.988 250.218 208.738 250.308 208.738 C 250.398 208.728 250.688 208.848 250.968 208.988 Z M 254.228 212.628 C 254.488 213.148 254.768 214.598 254.628 214.728 C 254.568 214.778 252.988 215.528 251.108 216.398 C 249.228 217.258 246.778 218.418 245.658 218.978 C 244.538 219.538 243.688 219.928 243.778 219.858 C 243.858 219.788 245.088 218.748 246.518 217.568 C 249.278 215.278 252.418 212.538 252.988 211.928 L 253.338 211.558 L 253.678 211.878 C 253.858 212.058 254.108 212.398 254.228 212.628 Z M 251.138 212.598 C 250.868 212.848 249.388 214.128 247.868 215.448 C 246.348 216.768 244.518 218.358 243.808 218.978 C 242.368 220.228 242.368 220.228 244.208 217.838 C 245.628 215.988 246.368 215.298 248.408 213.928 C 249.398 213.268 251.368 212.148 251.568 212.148 C 251.598 212.148 251.408 212.348 251.138 212.598 Z M 265.408 213.858 C 265.478 214.248 265.578 215.458 265.618 216.538 L 265.688 218.508 L 265.228 218.298 C 263.648 217.568 259.208 215.068 259.378 214.998 C 260.348 214.608 265.138 213.018 265.198 213.078 C 265.238 213.118 265.338 213.468 265.408 213.858 Z M 261.648 217.388 C 263.498 218.478 265.028 219.378 265.048 219.398 C 265.068 219.418 264.828 219.618 264.528 219.838 C 263.938 220.268 257.678 223.508 257.588 223.428 C 257.558 223.398 257.648 222.858 257.778 222.238 C 258.038 220.978 258.258 217.218 258.158 216.028 C 258.118 215.608 258.138 215.308 258.198 215.348 C 258.238 215.378 259.798 216.298 261.648 217.388 Z M 256.538 216.588 C 256.678 217.758 256.508 220.108 256.188 221.338 C 255.818 222.778 255.598 223.378 255.438 223.428 C 255.218 223.498 253.848 222.258 253.018 221.218 C 252.178 220.168 251.068 218.198 251.238 218.038 C 251.338 217.938 256.218 215.928 256.378 215.928 C 256.418 215.918 256.488 216.218 256.538 216.588 Z M 250.548 219.528 C 251.068 220.598 252.248 222.138 253.538 223.448 C 254.368 224.288 254.578 224.558 254.448 224.648 C 253.868 225.038 251.268 226.258 249.628 226.898 C 247.638 227.678 245.048 228.578 244.988 228.498 C 244.968 228.468 245.558 227.388 246.308 226.098 C 247.928 223.288 249.978 219.298 249.978 218.968 C 249.988 218.558 250.158 218.728 250.548 219.528 Z M 247.478 219.598 C 247.448 219.678 247.198 220.298 246.928 220.978 C 245.778 223.898 243.538 227.868 243.038 227.868 C 242.648 227.868 242.078 225.558 241.918 223.338 L 241.838 222.218 L 244.578 220.838 C 246.088 220.078 247.368 219.458 247.428 219.458 C 247.488 219.448 247.508 219.518 247.478 219.598 Z M 265.768 222.298 C 265.778 223.978 265.078 228.048 264.698 228.458 C 264.538 228.628 262.808 227.988 261.238 227.178 C 259.838 226.458 257.528 225.028 257.528 224.878 C 257.528 224.838 257.878 224.658 258.318 224.478 C 259.148 224.128 263.018 222.058 264.658 221.088 L 265.598 220.528 L 265.678 220.958 C 265.718 221.198 265.758 221.808 265.768 222.298 Z M 239.958 224.238 C 240.118 225.568 240.528 227.198 241.038 228.488 C 241.248 229.018 241.398 229.478 241.368 229.498 C 241.168 229.678 232.938 231.948 231.848 232.118 L 231.328 232.198 L 231.408 231.798 C 231.518 231.228 232.318 229.608 232.908 228.728 C 233.648 227.638 235.468 225.808 236.668 224.958 C 237.568 224.328 239.728 223.058 239.788 223.138 C 239.828 223.148 239.888 223.638 239.958 224.238 Z M 258.628 227.048 C 261.168 228.268 262.128 228.688 263.348 229.108 L 264.278 229.428 L 263.688 229.728 C 260.358 231.418 254.458 233.818 252.938 234.118 C 252.598 234.188 252.548 234.168 252.618 233.998 C 252.878 233.318 256.398 226.048 256.468 226.048 C 256.508 226.048 257.488 226.498 258.628 227.048 Z M 254.158 226.778 C 253.978 227.638 253.008 230.408 252.448 231.668 C 251.958 232.768 250.828 234.898 250.628 235.098 C 250.538 235.188 248.528 234.058 247.578 233.378 C 246.508 232.618 244.168 230.358 244.238 230.148 C 244.268 230.068 245.688 229.518 247.408 228.928 C 251.028 227.678 253.048 226.928 253.638 226.618 C 254.198 226.318 254.248 226.338 254.158 226.778 Z M 264.278 230.598 C 264.248 230.848 264.038 231.938 263.818 233.048 C 263.128 236.508 262.288 238.878 261.758 238.878 C 261.018 238.878 255.978 237.658 254.348 237.078 C 253.238 236.688 252.288 236.238 251.968 235.968 C 251.768 235.798 251.878 235.738 253.318 235.148 C 257.978 233.248 263.358 230.818 263.938 230.358 C 264.288 230.078 264.338 230.118 264.278 230.598 Z M 240.678 231.658 C 240.148 232.608 239.068 234.168 236.998 236.958 L 235.238 239.338 L 234.708 238.958 C 233.968 238.428 232.788 237.148 232.298 236.338 C 231.768 235.468 231.408 234.388 231.368 233.568 L 231.338 232.928 L 232.208 232.838 C 233.388 232.718 236.698 232.038 239.048 231.418 C 240.118 231.138 241.008 230.928 241.028 230.938 C 241.038 230.968 240.888 231.288 240.678 231.658 Z M 245.808 234.108 C 246.398 234.528 247.208 235.068 247.618 235.308 L 248.368 235.748 L 248.028 235.888 C 247.838 235.968 245.098 236.968 241.928 238.108 C 236.518 240.058 236.168 240.178 236.018 239.978 C 235.928 239.858 235.868 239.738 235.878 239.698 C 235.888 239.658 237.348 237.768 239.128 235.498 L 242.358 231.368 L 243.548 232.358 C 244.218 232.908 245.218 233.688 245.808 234.108 Z M 247.138 240.318 C 245.958 242.088 244.958 243.578 244.918 243.618 C 244.828 243.738 242.938 243.298 241.528 242.818 C 240.048 242.318 238.218 241.398 237.498 240.778 L 236.978 240.328 L 238.148 240.008 C 242.918 238.708 249.228 237.038 249.258 237.058 C 249.278 237.078 248.318 238.548 247.138 240.318 Z M 252.808 237.638 C 255.338 238.508 257.638 238.998 260.628 239.318 L 261.448 239.408 L 259.218 240.208 C 253.658 242.218 249.148 243.628 246.888 244.068 C 246.248 244.188 245.668 244.298 245.608 244.298 C 245.548 244.298 245.998 243.678 246.618 242.918 C 248.318 240.848 250.158 238.488 250.648 237.758 C 250.888 237.408 251.128 237.108 251.178 237.108 C 251.238 237.118 251.968 237.348 252.808 237.638 Z M 261.098 242.318 C 260.138 244.788 259.438 246.298 259.198 246.388 C 258.728 246.568 252.158 245.608 250.148 245.058 C 248.818 244.698 247.968 244.348 248.218 244.258 C 248.318 244.228 249.268 243.998 250.338 243.758 C 253.808 242.978 259.108 241.368 261.308 240.428 C 261.588 240.308 261.838 240.218 261.858 240.238 C 261.878 240.258 261.538 241.188 261.098 242.318 Z M 222.248 244.408 C 221.778 244.608 221.558 244.998 221.508 245.728 C 221.458 246.408 221.458 246.418 221.118 246.418 C 220.778 246.418 220.768 246.438 220.808 246.918 C 220.838 247.368 220.878 247.418 221.168 247.458 L 221.488 247.498 L 221.488 251.158 L 222.038 251.108 L 222.598 251.068 L 222.638 249.268 L 222.678 247.468 L 224.318 247.468 L 224.318 248.788 C 224.318 250.428 224.488 250.858 225.198 251.098 C 225.518 251.208 225.818 251.228 226.138 251.158 C 226.588 251.068 226.608 251.038 226.648 250.558 L 226.688 250.048 L 226.298 250.118 C 225.618 250.238 225.578 250.158 225.598 248.498 L 225.608 247.478 L 225.948 247.478 C 226.538 247.478 226.668 247.368 226.668 246.878 L 226.668 246.418 L 225.608 246.418 L 225.608 245.978 C 225.608 245.328 225.498 245.218 224.888 245.258 L 224.368 245.288 L 224.328 245.848 L 224.288 246.408 L 222.658 246.408 L 222.658 246.008 C 222.658 245.458 222.948 245.188 223.448 245.288 C 223.828 245.358 223.838 245.358 223.838 244.968 C 223.838 244.758 223.768 244.508 223.698 244.428 C 223.538 244.288 222.598 244.268 222.248 244.408 Z M 196.188 244.598 C 195.678 244.958 195.928 245.708 196.568 245.708 C 197.228 245.708 197.348 245.618 197.348 245.108 C 197.338 244.458 196.758 244.198 196.188 244.598 Z M 187.528 244.918 C 187.348 245.048 187.328 245.348 187.358 248.068 L 187.388 251.068 L 187.948 251.108 L 188.508 251.148 L 188.508 248.538 C 188.508 247.098 188.538 245.948 188.568 245.978 C 188.608 246.008 188.948 246.958 189.338 248.088 C 189.728 249.218 190.128 250.368 190.228 250.648 L 190.418 251.158 L 191.008 251.108 L 191.598 251.068 L 192.498 248.568 L 193.398 246.068 L 193.458 248.568 C 193.498 249.948 193.538 251.088 193.548 251.108 C 193.558 251.128 193.828 251.128 194.128 251.108 L 194.688 251.068 L 194.718 248.078 C 194.738 245.968 194.708 245.038 194.608 244.918 C 194.398 244.658 193.068 244.708 192.828 244.978 C 192.728 245.098 192.308 246.068 191.908 247.128 C 191.508 248.188 191.148 249.098 191.108 249.148 C 191.068 249.198 190.718 248.348 190.328 247.268 C 189.938 246.168 189.508 245.188 189.358 245.038 C 189.148 244.828 188.968 244.768 188.408 244.768 C 188.038 244.768 187.638 244.838 187.528 244.918 Z M 199.648 246.418 C 198.788 246.698 198.278 247.588 198.278 248.838 C 198.278 250.238 198.808 250.998 199.928 251.188 C 200.438 251.278 201.308 251.078 201.608 250.808 C 201.808 250.628 201.898 249.958 201.738 249.808 C 201.698 249.768 201.478 249.838 201.248 249.968 C 200.398 250.428 199.768 250.168 199.568 249.278 C 199.438 248.688 199.578 247.928 199.888 247.598 C 200.138 247.328 200.758 247.308 201.238 247.558 C 201.688 247.788 201.818 247.708 201.818 247.188 C 201.818 246.898 201.748 246.738 201.538 246.608 C 201.178 246.358 200.118 246.268 199.648 246.418 Z M 204.238 246.658 C 203.828 247.018 203.828 247.018 203.788 246.748 C 203.758 246.518 203.678 246.468 203.248 246.438 L 202.748 246.398 L 202.748 251.118 L 203.928 251.118 L 203.928 249.658 C 203.928 248.198 203.928 248.198 204.278 247.818 C 204.568 247.508 204.698 247.448 205.048 247.488 C 205.488 247.538 205.578 247.438 205.578 246.888 C 205.578 246.208 204.898 246.088 204.238 246.658 Z M 207.498 246.438 C 206.548 246.718 205.968 247.828 206.088 249.138 C 206.198 250.348 206.818 251.038 207.938 251.198 C 209.918 251.468 211.208 249.848 210.648 247.808 C 210.308 246.608 208.948 246.008 207.498 246.438 Z M 208.878 247.358 C 209.498 247.688 209.658 249.128 209.148 249.808 C 208.828 250.228 208.118 250.308 207.688 249.968 C 207.428 249.758 207.408 249.658 207.408 248.778 C 207.408 247.868 207.428 247.798 207.738 247.528 C 208.078 247.228 208.518 247.168 208.878 247.358 Z M 212.358 246.468 C 211.758 246.728 211.538 247.078 211.538 247.728 C 211.538 248.428 211.758 248.688 212.808 249.188 C 213.408 249.478 213.538 249.588 213.538 249.838 C 213.538 250.048 213.448 250.168 213.208 250.248 C 212.908 250.348 212.628 250.298 211.678 249.998 C 211.498 249.938 211.468 249.988 211.498 250.388 C 211.528 250.768 211.598 250.878 211.888 251.018 C 212.378 251.258 213.558 251.238 214.048 250.978 C 214.758 250.598 214.978 249.448 214.458 248.868 C 214.338 248.738 213.908 248.468 213.478 248.268 C 212.698 247.898 212.508 247.628 212.778 247.308 C 212.958 247.098 213.488 247.098 214.018 247.318 C 214.368 247.468 214.438 247.468 214.498 247.328 C 214.618 247.008 214.478 246.628 214.188 246.478 C 213.798 246.268 212.798 246.268 212.358 246.468 Z M 217.128 246.388 C 216.088 246.758 215.618 247.388 215.518 248.508 C 215.398 249.888 215.898 250.768 216.978 251.088 C 218.788 251.618 220.198 250.568 220.188 248.698 C 220.178 247.568 219.668 246.738 218.788 246.438 C 218.378 246.298 217.448 246.268 217.128 246.388 Z M 218.498 247.528 C 218.808 247.788 218.828 247.868 218.828 248.698 C 218.828 249.478 218.798 249.618 218.538 249.888 C 218.168 250.278 217.468 250.308 217.118 249.958 C 216.818 249.658 216.728 249.268 216.798 248.458 C 216.838 247.928 216.918 247.748 217.168 247.518 C 217.588 247.158 218.078 247.168 218.498 247.528 Z M 196.068 248.738 L 196.098 251.078 L 197.278 251.078 L 197.278 246.478 L 196.658 246.448 L 196.038 246.408 L 196.068 248.738 Z M 190.438 254.018 C 188.928 254.348 187.788 255.178 187.188 256.408 C 186.818 257.158 186.798 257.268 186.798 258.488 C 186.798 259.668 186.828 259.848 187.118 260.448 C 187.748 261.738 188.908 262.648 191.328 263.748 C 193.968 264.948 194.688 265.688 194.688 267.218 C 194.688 268.608 194.038 269.438 192.608 269.878 C 191.188 270.318 189.768 270.108 187.928 269.188 C 187.318 268.878 186.768 268.608 186.728 268.588 C 186.678 268.568 186.568 268.638 186.458 268.738 C 186.238 268.968 186.198 270.108 186.408 270.488 C 186.848 271.318 189.158 272.088 191.168 272.088 C 194.948 272.088 197.388 269.838 197.188 266.528 C 197.148 265.808 197.058 265.458 196.758 264.858 C 196.168 263.668 195.408 263.048 193.098 261.918 C 192.028 261.398 190.858 260.768 190.488 260.518 C 189.028 259.538 188.688 257.868 189.718 256.708 C 190.288 256.058 190.868 255.848 192.058 255.838 C 193.188 255.838 193.648 255.958 194.948 256.618 C 196.068 257.188 196.168 257.138 196.168 256.028 C 196.168 255.028 196.108 254.938 195.088 254.468 C 193.738 253.878 191.928 253.698 190.438 254.018 Z M 206.198 253.948 C 203.968 254.308 202.248 255.388 201.098 257.158 C 200.518 258.058 200.198 258.898 199.898 260.318 C 199.568 261.868 199.648 265.318 200.038 266.738 C 200.998 270.228 203.148 271.908 206.828 272.068 C 208.768 272.148 209.518 272.008 211.418 271.198 C 211.488 271.168 211.808 271.368 212.128 271.638 C 213.348 272.698 216.028 274.218 216.968 274.398 C 217.548 274.508 217.708 274.318 217.708 273.498 C 217.708 273.118 217.678 272.728 217.638 272.618 C 217.598 272.508 217.038 272.158 216.378 271.828 C 215.368 271.328 213.348 270.028 213.348 269.878 C 213.348 269.848 213.538 269.588 213.758 269.288 C 214.708 268.048 215.278 266.318 215.478 264.078 C 215.628 262.368 215.488 260.538 215.098 259.118 C 214.388 256.548 212.658 254.778 210.218 254.118 C 209.408 253.918 207.088 253.808 206.198 253.948 Z M 209.738 256.198 C 211.138 256.718 212.068 257.778 212.608 259.428 C 212.878 260.258 212.928 260.638 212.978 262.398 C 213.048 264.758 212.868 265.898 212.248 267.218 C 211.258 269.338 209.088 270.398 206.558 270.008 C 203.418 269.528 202.038 267.158 202.198 262.508 C 202.288 259.838 202.768 258.438 204.008 257.258 C 204.738 256.558 205.268 256.248 206.118 256.038 C 207.098 255.778 208.838 255.858 209.738 256.198 Z M 238.068 254.028 C 236.618 254.378 235.388 255.278 234.858 256.358 C 234.258 257.598 234.238 259.348 234.808 260.478 C 235.478 261.808 236.378 262.498 239.178 263.828 C 241.298 264.838 242.008 265.428 242.298 266.418 C 242.638 267.588 242.198 268.808 241.218 269.448 C 239.688 270.438 237.508 270.278 235.178 269.008 C 234.128 268.438 233.978 268.498 233.978 269.508 C 233.978 270.448 234.108 270.728 234.748 271.098 C 236.718 272.258 239.998 272.408 242.038 271.448 C 244.498 270.288 245.608 267.238 244.448 264.818 C 244.298 264.508 243.878 263.968 243.498 263.598 C 242.918 263.028 242.458 262.748 240.518 261.798 C 237.298 260.218 236.658 259.538 236.848 257.928 C 236.948 257.128 237.368 256.538 238.108 256.168 C 238.618 255.908 238.898 255.858 239.678 255.858 C 240.838 255.858 241.308 255.978 242.478 256.578 C 243.478 257.088 243.688 257.128 243.798 256.848 C 243.938 256.498 243.868 255.328 243.698 255.078 C 243.468 254.758 242.298 254.238 241.308 254.028 C 240.318 253.818 238.958 253.808 238.068 254.028 Z M 219.738 254.218 C 219.628 254.328 219.598 256.398 219.598 262.818 L 219.598 271.278 L 219.888 271.568 L 220.178 271.858 L 224.358 271.858 C 227.558 271.858 228.558 271.818 228.658 271.708 C 228.838 271.478 228.918 270.788 228.818 270.328 L 228.728 269.918 L 225.378 269.858 L 222.028 269.798 L 221.998 262.028 C 221.978 255.998 221.938 254.238 221.828 254.168 C 221.578 254.028 219.898 254.058 219.738 254.218 Z M 251.168 258.638 C 250.598 258.728 249.458 259.178 248.988 259.498 C 247.858 260.268 247.058 261.498 246.608 263.148 C 246.328 264.198 246.328 266.788 246.608 267.858 C 247.188 270.048 248.468 271.378 250.508 271.918 C 251.398 272.148 253.648 272.148 254.748 271.918 C 255.788 271.698 256.868 271.298 257.068 271.068 C 257.258 270.848 257.248 269.658 257.058 269.468 C 256.958 269.368 256.648 269.438 255.818 269.718 C 252.628 270.798 250.168 270.328 249.218 268.458 C 248.938 267.908 248.678 266.808 248.678 266.188 L 248.678 265.858 L 252.728 265.858 C 255.288 265.858 256.908 265.808 257.138 265.728 C 257.658 265.548 257.798 265.098 257.708 263.938 C 257.528 261.638 256.758 260.198 255.248 259.288 C 254.288 258.708 252.508 258.418 251.168 258.638 Z M 253.328 260.488 C 254.528 260.848 255.268 261.868 255.378 263.278 L 255.438 264.088 L 248.658 264.088 L 248.738 263.598 C 248.948 262.378 249.458 261.468 250.248 260.928 C 251.138 260.318 252.248 260.158 253.328 260.488 Z M 264.918 258.668 C 264.358 258.848 263.548 259.498 262.968 260.228 L 262.408 260.948 L 262.348 259.898 L 262.288 258.848 L 261.588 258.808 C 261.198 258.788 260.768 258.798 260.618 258.838 L 260.348 258.898 L 260.348 265.308 C 260.348 271.048 260.368 271.718 260.538 271.788 C 260.778 271.878 262.168 271.878 262.398 271.788 C 262.568 271.728 262.588 271.238 262.588 267.538 L 262.588 263.358 L 263.108 262.628 C 263.818 261.628 264.738 260.818 265.268 260.718 C 265.548 260.668 265.988 260.708 266.508 260.838 C 267.018 260.968 267.358 260.998 267.428 260.928 C 267.488 260.868 267.528 260.388 267.508 259.888 C 267.478 258.988 267.458 258.948 267.128 258.798 C 266.718 258.598 265.368 258.518 264.918 258.668 Z M 285.198 258.678 C 284.268 258.838 282.948 259.518 282.268 260.198 C 280.978 261.488 280.438 263.268 280.528 265.908 C 280.608 268.288 281.048 269.468 282.298 270.638 C 283.488 271.768 284.748 272.138 287.028 272.068 C 288.698 272.008 290.198 271.678 290.888 271.218 C 291.228 270.988 291.268 270.898 291.298 270.318 C 291.318 269.968 291.278 269.598 291.218 269.498 C 291.098 269.308 291.198 269.288 289.208 269.918 C 288.398 270.168 287.968 270.228 286.968 270.238 C 284.988 270.248 283.968 269.718 283.298 268.358 C 283.018 267.788 282.918 267.388 282.868 266.728 L 282.808 265.858 L 287.048 265.828 C 292.138 265.788 291.798 265.898 291.788 264.328 C 291.778 261.568 290.588 259.648 288.438 258.898 C 287.658 258.638 286.088 258.528 285.198 258.678 Z M 287.418 260.498 C 288.588 260.848 289.358 261.888 289.518 263.358 L 289.598 264.088 L 282.818 264.088 L 282.888 263.498 C 283.058 262.058 284.048 260.818 285.328 260.428 C 285.818 260.278 286.778 260.318 287.418 260.498 Z M 299.098 258.658 C 298.338 258.908 297.288 259.788 296.708 260.658 C 296.518 260.948 296.508 260.928 296.508 260.008 C 296.508 259.428 296.458 259.008 296.368 258.928 C 296.178 258.738 294.718 258.738 294.528 258.928 C 294.328 259.128 294.328 271.518 294.528 271.718 C 294.718 271.908 296.408 271.908 296.598 271.718 C 296.698 271.618 296.738 270.498 296.738 267.448 L 296.738 263.318 L 297.178 262.668 C 297.828 261.698 298.648 260.938 299.218 260.768 C 299.708 260.618 299.898 260.638 301.208 260.978 C 301.578 261.078 301.688 260.868 301.688 260.078 C 301.688 259.198 301.608 258.958 301.238 258.788 C 300.858 258.618 299.488 258.528 299.098 258.658 Z M 267.778 258.968 C 267.658 259.118 268.018 260.218 269.838 265.298 C 271.048 268.678 272.138 271.548 272.258 271.678 C 272.708 272.138 274.938 272.028 275.138 271.538 C 275.288 271.148 279.418 259.678 279.498 259.408 C 279.638 258.938 279.388 258.798 278.378 258.798 C 277.788 258.798 277.418 258.848 277.348 258.948 C 277.288 259.028 276.448 261.418 275.488 264.258 C 274.528 267.098 273.708 269.378 273.658 269.318 C 273.608 269.268 272.788 266.948 271.838 264.158 C 270.888 261.368 270.048 259.028 269.978 258.938 C 269.798 258.708 267.958 258.738 267.778 258.968 Z" style="fill: rgb(255, 0, 0);"/>
</svg>